<svg width="200" height="48" viewBox="0 0 200 48" fill="none" xmlns="http://www.w3.org/2000/svg">
<g clip-path="url(#clip0_3684_39718)">
<path d="M60.7658 16.7827C58.0391 16.7827 55.3787 17.7026 53.2322 19.3519V6.38986C53.2322 6.07493 52.9836 5.82629 52.6686 5.82629H49.0055C48.6905 5.82629 48.4419 6.07493 48.4419 6.38986V40.5188C48.4419 40.8338 48.6905 41.0824 49.0055 41.0824H52.6686C52.9836 41.0824 53.2322 40.8338 53.2322 40.5188V29.1397C53.2322 24.8798 56.7462 21.4321 61.0061 21.573C65.1003 21.7056 68.3325 25.1285 68.3325 29.2226V40.5105C68.3325 40.8255 68.5811 41.0741 68.8961 41.0741H72.5592C72.8742 41.0741 73.1228 40.8255 73.1228 40.5105V29.1397C73.1228 22.3272 67.5783 16.7827 60.7658 16.7827Z" fill="#040000"/>
<path d="M121.88 16.7827C119.153 16.7827 116.493 17.7026 114.346 19.3519V6.38986C114.346 6.07493 114.097 5.82629 113.783 5.82629H110.119C109.804 5.82629 109.556 6.07493 109.556 6.38986V40.5188C109.556 40.8338 109.804 41.0824 110.119 41.0824H113.783C114.097 41.0824 114.346 40.8338 114.346 40.5188V29.1397C114.346 24.8798 117.86 21.4321 122.12 21.573C126.214 21.7056 129.446 25.1285 129.446 29.2226V40.5105C129.446 40.8255 129.695 41.0741 130.01 41.0741H133.673C133.988 41.0741 134.237 40.8255 134.237 40.5105V29.1397C134.237 22.3272 128.692 16.7827 121.88 16.7827Z" fill="#040000"/>
<path d="M151.309 16.6169C144.497 16.6169 138.952 22.1449 138.952 28.9325C138.952 35.7451 144.497 41.2896 151.309 41.2896C158.097 41.2896 163.625 35.7451 163.625 28.9325C163.625 22.1449 158.105 16.6169 151.309 16.6169ZM151.309 36.5075C147.132 36.5075 143.734 33.1096 143.734 28.9325C143.734 24.7804 147.132 21.399 151.309 21.399C155.462 21.399 158.843 24.7804 158.843 28.9325C158.843 33.1096 155.462 36.5075 151.309 36.5075Z" fill="#040000"/>
<path d="M195.21 17.2634V32.1068C195.21 34.419 193.42 36.375 191.107 36.4993C188.637 36.6319 186.582 34.6594 186.582 32.2145V17.2634C186.582 16.9485 186.333 16.6998 186.019 16.6998H182.314C181.999 16.6998 181.75 16.9485 181.75 17.2634V32.1731C181.75 34.5599 179.828 36.5076 177.457 36.5076C175.07 36.5076 173.123 34.5848 173.123 32.2145V17.2634C173.123 16.9485 172.874 16.6998 172.559 16.6998H168.896C168.581 16.6998 168.332 16.9485 168.332 17.2634V32.0819C168.332 37.1126 172.443 41.3062 177.474 41.2979C180.068 41.2896 182.455 40.2288 184.17 38.3474C185.853 40.2122 188.281 41.2979 190.859 41.2979C195.889 41.2979 199.975 37.2286 199.975 32.2228V17.2634C199.975 16.9485 199.726 16.6998 199.412 16.6998H195.748C195.467 16.6998 195.21 16.9567 195.21 17.2634Z" fill="#040000"/>
<path d="M101.948 16.8076H98.2844C97.9695 16.8076 97.7209 17.0562 97.7209 17.3711V19.8243C95.6904 17.9098 93.1212 16.6004 90.1956 16.6004C83.3831 16.6004 77.8303 22.1283 77.8303 28.916C77.8303 35.7285 83.3748 41.2813 90.1956 41.2813C93.1294 41.2813 95.6904 39.9221 97.7209 37.9745V37.9911L97.7374 40.5354C97.7374 40.842 97.9944 41.0907 98.301 41.0907H101.939C102.254 41.0907 102.503 40.842 102.503 40.5271V17.3711C102.511 17.0562 102.263 16.8076 101.948 16.8076ZM90.179 36.4827C86.0103 36.4827 82.6289 33.1013 82.6289 28.9325C82.6289 24.7638 86.0103 21.3824 90.179 21.3824C94.3477 21.3824 97.7291 24.7638 97.7291 28.9325C97.7291 33.1013 94.3477 36.4827 90.179 36.4827Z" fill="#040000"/>
<path d="M34.3279 46.6103C34.3279 46.9833 33.9466 47.2236 33.6068 47.0661L18.8961 39.5326C18.5812 39.3502 18.49 39.1431 18.49 38.8613L18.4983 14.603C18.4983 14.3212 18.7303 14.0892 19.0204 14.0975C21.7637 14.1886 34.5517 15.4898 34.3362 31.7752L34.3279 46.6103Z" fill="#00D1B4"/>
<path d="M15.4318 39.5409L0.729322 47.0578C0.397812 47.2319 0 46.9915 0 46.6103V8.24631C0 7.96453 0.157467 7.69932 0.414388 7.575L15.1169 0.0580134C15.4484 -0.116029 15.8462 0.132603 15.8462 0.505552V38.8695C15.8462 39.1513 15.7384 39.3751 15.4318 39.5409Z" fill="#05ADA2"/>
</g>
<defs>
<clipPath id="clip0_3684_39718">
<rect width="200" height="48" fill="white"/>
</clipPath>
</defs>
</svg>
